# xmcd
#
# Track frame offsets:
#	150
#	18822
#	35915
#	47991
#	63325
#	88900
#	102559
#	116604
#	131374
#	148287
#
# Disc length: 2184 seconds
#
# Revision: 1
# Processed by: cddbd v1.5.2PL0 Copyright (c) Steve Scherf et al.
# Submitted via: audiograbber 1.82.02
#
DISCID=9308860a
DTITLE=Little Texas - Country Classics
DYEAR=2004
DGENRE=Country
TTITLE0=My Love
TTITLE1=Country Crazy
TTITLE2=Life Goes on
TTITLE3=What Were You Thinking
TTITLE4=Southern Grace
TTITLE5=Your Mama Won't Let Me
TTITLE6=Stop on A Dime
TTITLE7=Bad for Us
TTITLE8=You and Forever and Me
TTITLE9=God Blessed Texas
EXTD=
EXTT0=
EXTT1=
EXTT2=
EXTT3=
EXTT4=
EXTT5=
EXTT6=
EXTT7=
EXTT8=
EXTT9=
PLAYORDER=
